PathFileType	4	(X/Y/Z)	./resultDataOpenSim/trcMotMarkerGrf/sub09/qtm-14-01.trc
DataRate	CameraRate	NumFrames	NumMarkers	Units	OrigDataRate	OrigDataStartFrame	OrigNumFrames
250.000000	250.000000	12	24	m	250.000000	191	507
Frame#	Time	L.Toe.Tip			R.Toe.Tip			L.Ankle.Lat			R.Ankle.Lat			L.Ankle.Med			R.Ankle.Med			L.Heel			R.Heel			L.Knee.Lat			R.Knee.Lat			L.Knee.Med			R.Knee.Med			L.Thigh.Upper			R.Thigh.Upper			L.ASIS			R.ASIS			V.Sacral			L.Acromium			R.Acromium			C7			L.Elbow			R.Elbow			L.Wrist.Lat			R.Wrist.Lat
		X1	Y1	Z1	X2	Y2	Z2	X3	Y3	Z3	X4	Y4	Z4	X5	Y5	Z5	X6	Y6	Z6	X7	Y7	Z7	X8	Y8	Z8	X9	Y9	Z9	X10	Y10	Z10	X11	Y11	Z11	X12	Y12	Z12	X13	Y13	Z13	X14	Y14	Z14	X15	Y15	Z15	X16	Y16	Z16	X17	Y17	Z17	X18	Y18	Z18	X19	Y19	Z19	X20	Y20	Z20	X21	Y21	Z21	X22	Y22	Z22	X23	Y23	Z23	X24	Y24	Z24

191	0.76	0.096726463	-0.034727802	0.0085917884	-0.52884466	0.099596596	0.077324819	-0.043983905	-0.0027725946	-0.058112244	-0.57155111	0.25024043	0.10097356	-0.038113788	0.014403279	0.041293607	-0.51184746	0.2410918	0.02035684	-0.12117041	-0.037850819	-0.021225652	-0.60596885	0.29491342	0.03899188	0.015759479	0.41014332	-0.10887918	-0.16823308	0.41024105	0.20134846	0.011520862	0.41299618	0.017182379	-0.15119485	0.38900403	0.07648161	-0.13307975	0.80811421	-0.1619715	-0.19448594	0.80944024	0.2064395	-0.059137682	0.89314326	-0.091066405	-0.089402829	0.89381178	0.14827555	-0.23478263	0.94410856	-0.0067941442	-0.10150867	1.3435762	-0.1691407	-0.15252589	1.3653985	0.15995942	-0.1916064	1.3996016	-0.01468694	-0.27282232	1.0234457	-0.21327502	-0.26353594	1.0089233	0.24617649	-0.20006586	0.77695805	-0.26528067	-0.043977618	0.84367176	0.27114323
192	0.764	0.096847996	-0.034784509	0.0086980426	-0.51446382	0.10552413	0.079967367	-0.043488486	-0.0028678811	-0.058020615	-0.55767387	0.25557318	0.10143296	-0.037872389	0.014334148	0.041461956	-0.49860063	0.24583804	0.020981234	-0.12112811	-0.037601751	-0.021118466	-0.59264886	0.30001239	0.03963114	0.019588903	0.40838515	-0.10905532	-0.15364901	0.41054523	0.20106387	0.015676772	0.41068781	0.016938562	-0.13819066	0.38947272	0.076675626	-0.12742004	0.80814511	-0.16234929	-0.1883855	0.80901875	0.2066125	-0.053518054	0.89400739	-0.091758657	-0.084475162	0.89392074	0.14799233	-0.22981395	0.94420212	-0.0063533929	-0.093606376	1.3433453	-0.16901992	-0.14498942	1.3657061	0.15972663	-0.18480506	1.3996482	-0.015086084	-0.26397275	1.0228174	-0.21398408	-0.25844943	1.0099795	0.24526537	-0.19042095	0.77639212	-0.26570767	-0.041116564	0.84173675	0.27171442
193	0.768	0.097034039	-0.034838271	0.0088718959	-0.49981489	0.1112412	0.082559024	-0.042989309	-0.0028250373	-0.057706994	-0.54350451	0.2607176	0.10207937	-0.037504578	0.014235911	0.041832139	-0.48510215	0.25043128	0.021569515	-0.12101666	-0.037299828	-0.020774357	-0.57913306	0.3048806	0.040335234	0.023298759	0.40676731	-0.10903484	-0.13911979	0.41124468	0.2007249	0.01866821	0.40856945	0.016768515	-0.12465099	0.39025674	0.076577868	-0.12138936	0.80808183	-0.16289727	-0.1821403	0.80864	0.20664238	-0.047968656	0.89458426	-0.092427354	-0.079631104	0.8942172	0.14772475	-0.22498867	0.94437412	-0.0058916437	-0.085716736	1.3431698	-0.16879716	-0.13753166	1.3661287	0.15957228	-0.17811251	1.3998014	-0.015417681	-0.25513519	1.0222359	-0.21467442	-0.25333076	1.0112059	0.24442743	-0.18057055	0.77590193	-0.26606711	-0.038312439	0.83988632	0.27224355
194	0.772	0.097222522	-0.034894642	0.0090770764	-0.48505913	0.11663502	0.085050071	-0.042516611	-0.0027430678	-0.057291261	-0.52902278	0.26568517	0.10293767	-0.037084493	0.01410663	0.042277544	-0.47135918	0.25485963	0.022162935	-0.12090548	-0.036956417	-0.020337776	-0.56544147	0.30949892	0.041106619	0.026993343	0.40536213	-0.10877842	-0.1246506	0.41232619	0.20033964	0.020976377	0.40695293	0.016826772	-0.11061356	0.39144787	0.076150343	-0.1151488	0.8078906	-0.16342557	-0.17576076	0.80828936	0.20649949	-0.042441574	0.89494256	-0.093025539	-0.074858162	0.89468021	0.1474411	-0.22028031	0.94462396	-0.0054324825	-0.077861016	1.3430506	-0.1684765	-0.13025633	1.3666582	0.15949441	-0.17152069	1.4000691	-0.015679722	-0.24633702	1.021681	-0.21535291	-0.24804476	1.0125287	0.24365116	-0.17052425	0.77548304	-0.26634507	-0.035552018	0.83811283	0.27274473
195	0.776	0.097356781	-0.034952681	0.0092761673	-0.47021881	0.12173383	0.087442156	-0.04213129	-0.0027007343	-0.05689527	-0.51424811	0.2705027	0.10394932	-0.036708491	0.013960645	0.042699557	-0.45736526	0.25912294	0.022845067	-0.12083719	-0.036609249	-0.019930425	-0.55160732	0.3138898	0.041933258	0.030718181	0.40424728	-0.10827181	-0.11022311	0.41376405	0.19991699	0.023102031	0.40603979	0.017239204	-0.096404086	0.39305916	0.075524504	-0.10883876	0.8075331	-0.16380175	-0.1693025	0.80800211	0.20618467	-0.036932029	0.89519249	-0.093542923	-0.070143842	0.89530823	0.14711016	-0.21566289	0.94495116	-0.0049991815	-0.070086697	1.3430128	-0.16808493	-0.12317629	1.3672618	0.15947975	-0.16499655	1.4004614	-0.015880641	-0.23759035	1.0211348	-0.21601535	-0.24250477	1.0138852	0.24293372	-0.16029689	0.77515063	-0.26655951	-0.032834882	0.83642018	0.27323539
196	0.78	0.09741209	-0.03500586	0.0094497239	-0.45523329	0.12664259	0.089794202	-0.0418815	-0.002704876	-0.056584737	-0.4992847	0.27518439	0.10501052	-0.036442763	0.013820339	0.043059351	-0.44313952	0.26324226	0.0236475	-0.12081591	-0.036308376	-0.019606965	-0.53765386	0.31808342	0.042776031	0.034445262	0.4034618	-0.1075172	-0.095812454	0.415529	0.1994631	0.025211123	0.40579418	0.017964507	-0.082241869	0.39505302	0.074827006	-0.10254588	0.80698245	-0.16400906	-0.16283555	0.80784933	0.20572817	-0.031473203	0.89543639	-0.094008458	-0.065464222	0.89611471	0.14672338	-0.21111109	0.94535529	-0.0046145827	-0.062434947	1.3430855	-0.16765285	-0.11626472	1.3679069	0.15951173	-0.15850324	1.400976	-0.016036426	-0.22889195	1.0205874	-0.21666311	-0.23685149	1.015241	0.24230132	-0.1499027	0.77492596	-0.26673989	-0.030159786	0.83482455	0.27373356
197	0.784	0.09740386	-0.035047217	0.0096016799	-0.44002261	0.13145525	0.092172223	-0.041757992	-0.002717193	-0.056360601	-0.48427072	0.27972025	0.1060341	-0.036289802	0.013704266	0.043362191	-0.42876742	0.26724417	0.024465697	-0.12081737	-0.03608649	-0.019379602	-0.52360168	0.32207824	0.043584353	0.038093848	0.40296581	-0.10655531	-0.081395908	0.41759281	0.19898203	0.027176864	0.40598272	0.0188424	-0.068192106	0.39739443	0.074113301	-0.096321107	0.80623543	-0.16411602	-0.15637691	0.80791011	0.20517368	-0.026092869	0.89572522	-0.094461658	-0.060790122	0.89710111	0.14629608	-0.20659884	0.94583603	-0.0043014046	-0.054917867	1.3432769	-0.16719332	-0.10951396	1.3685775	0.15957596	-0.15201851	1.4015974	-0.016160927	-0.22024047	1.020049	-0.21731338	-0.23141268	1.0166044	0.24179787	-0.13935359	0.77481981	-0.26689954	-0.027515951	0.83334452	0.27426094
198	0.788	0.097370873	-0.035074573	0.0097457914	-0.42452937	0.13620107	0.094585257	-0.041698312	-0.0027127512	-0.056199354	-0.46928971	0.2840837	0.10697918	-0.036199116	0.013619073	0.043623497	-0.41433333	0.27113528	0.025171535	-0.120817	-0.035937679	-0.019258689	-0.50947767	0.32583642	0.044324612	0.041544263	0.40266637	-0.10549613	-0.066953288	0.41992854	0.19847695	0.028862704	0.40632523	0.019721882	-0.054289043	0.40006269	0.073391962	-0.090219918	0.80532111	-0.16420158	-0.14987365	0.80824135	0.20455149	-0.020804731	0.896039	-0.094936845	-0.056104475	0.89824462	0.14585124	-0.20209575	0.94639334	-0.0040835559	-0.04753113	1.3435701	-0.16670558	-0.10294313	1.369268	0.15966146	-0.14554429	1.4023131	-0.01625556	-0.21164862	1.0195517	-0.21799576	-0.22642159	1.0180069	0.24144379	-0.1286626	0.77482759	-0.26703716	-0.024891796	0.83199032	0.27484134
199	0.792	0.097345516	-0.035092815	0.0098886363	-0.40874437	0.14084689	0.096970762	-0.041627066	-0.002688552	-0.056080696	-0.45435591	0.2882367	0.10784237	-0.036108384	0.013562015	0.043847528	-0.39983655	0.27489802	0.025775123	-0.12081285	-0.035815899	-0.019247379	-0.49531326	0.32931381	0.044995028	0.04467293	0.40246312	-0.10447996	-0.052461937	0.42250792	0.19795051	0.030245988	0.40659915	0.020498952	-0.040493941	0.4030372	0.072668113	-0.084297643	0.80430716	-0.16430856	-0.14333401	0.80886342	0.20389678	-0.015630912	0.89630516	-0.095454953	-0.051405823	0.89951154	0.14540769	-0.19756287	0.9470277	-0.0039885359	-0.040275857	1.3439449	-0.16619101	-0.096597333	1.3699822	0.15976666	-0.13909996	1.4031173	-0.016305145	-0.20312925	1.0191234	-0.21872822	-0.22177786	1.0194546	0.24120656	-0.11784423	0.77493955	-0.26715139	-0.022281152	0.83076398	0.27549185
200	0.796	0.097335938	-0.035110839	0.010024962	-0.39270003	0.14534885	0.099243598	-0.041490743	-0.0026391961	-0.055980302	-0.43947567	0.29212729	0.10865716	-0.035985895	0.013534608	0.044022842	-0.38525451	0.27851123	0.026344954	-0.12082139	-0.035648591	-0.019331928	-0.48113782	0.33248787	0.045624569	0.047402799	0.40229085	-0.10360467	-0.037889212	0.42529746	0.19740478	0.031382889	0.4066787	0.021116782	-0.026614119	0.40630729	0.071976633	-0.078528414	0.80331765	-0.1644609	-0.13696079	0.80977355	0.2032926	-0.010593757	0.896455	-0.096006259	-0.046708229	0.90087601	0.14497906	-0.1929556	0.94773964	-0.0040486734	-0.033160295	1.3443977	-0.16566097	-0.090532433	1.370738	0.15990065	-0.13270437	1.4039895	-0.01628992	-0.19466958	1.018761	-0.21948923	-0.21711353	1.0209124	0.24102404	-0.10691036	0.77515839	-0.26724542	-0.019675393	0.82967305	0.27621953
201	0.8	0.097331178	-0.035133834	0.010141721	-0.37641471	0.14971319	0.10137563	-0.041293248	-0.0025512718	-0.055896569	-0.42467845	0.29570374	0.10949642	-0.035842725	0.013551661	0.044127718	-0.37062268	0.28196527	0.026878574	-0.12084309	-0.035382408	-0.019473532	-0.46695921	0.33535519	0.046260086	0.049736933	0.40214668	-0.1029049	-0.023190458	0.42825768	0.19684213	0.032332574	0.40653884	0.021571608	-0.012515383	0.40987742	0.071349955	-0.072788674	0.80253991	-0.16468189	-0.1310064	0.8109608	0.20282787	-0.0056722656	0.89647758	-0.096545047	-0.042039447	0.90232549	0.14457265	-0.18824858	0.94852803	-0.0042949322	-0.026186037	1.3449417	-0.16513123	-0.084768618	1.3715549	0.16007074	-0.126364	1.4048973	-0.016207918	-0.1862381	1.0184399	-0.22023194	-0.21212239	1.0223413	0.24085981	-0.095868641	0.77550598	-0.26732666	-0.017060936	0.8287367	0.27702886
202	0.804	0.097317623	-0.035157697	0.010222869	-0.35986039	0.15399217	0.10341633	-0.041098514	-0.0024145417	-0.055880936	-0.4099513	0.29896397	0.11041839	-0.035705248	0.013634886	0.044141023	-0.35598701	0.28525908	0.027351421	-0.12084861	-0.035023413	-0.01960463	-0.45276261	0.3379176	0.046935087	0.051769452	0.40206925	-0.10237957	-0.0083296522	0.43135508	0.19626858	0.033075494	0.40621917	0.021889322	0.001682738	0.41373351	0.070761651	-0.067008857	0.80217115	-0.16497021	-0.12551741	0.81239545	0.20251555	-0.00079377655	0.89642383	-0.097008481	-0.037414665	0.90384846	0.14419068	-0.18348916	0.94938708	-0.0047362995	-0.01933974	1.3455894	-0.16461379	-0.079257059	1.3724328	0.16027186	-0.12007457	1.4058324	-0.01608632	-0.17782013	1.0181498	-0.22092788	-0.20681811	1.0237302	0.24072271	-0.084725241	0.77600859	-0.26740413	-0.014428949	0.82797127	0.27792911
